<svg xmlns="http://www.w3.org/2000/svg" width="495.938" height="117.127" viewBox="0 0 495.938 117.127"><path fill="#003B7D" d="M97.72 48.863c0 26.982-21.875 48.855-48.86 48.855S0 75.846 0 48.863C0 21.875 21.875 0 48.86 0s48.86 21.875 48.86 48.863z"/><path fill="#EC008C" d="M35 27.488c0 4.3-3.488 7.79-7.793 7.79-4.304 0-7.793-3.49-7.793-7.79 0-4.307 3.49-7.793 7.793-7.793 4.305 0 7.793 3.487 7.793 7.793zM78.306 27.488c0 4.3-3.488 7.79-7.792 7.79s-7.793-3.49-7.793-7.79c0-4.307 3.49-7.793 7.794-7.793s7.792 3.487 7.792 7.793z"/><path fill="#ff0" d="M56.652 27.488c0 4.3-3.488 7.79-7.792 7.79-4.305 0-7.792-3.49-7.792-7.79 0-4.307 3.487-7.793 7.792-7.793 4.304 0 7.792 3.487 7.792 7.793zM35 48.863c0 4.3-3.488 7.79-7.793 7.79-4.304 0-7.793-3.49-7.793-7.79 0-4.307 3.49-7.793 7.793-7.793 4.305 0 7.793 3.487 7.793 7.793zM78.306 48.863c0 4.3-3.488 7.79-7.792 7.79s-7.793-3.49-7.793-7.79c0-4.307 3.49-7.793 7.794-7.793s7.792 3.487 7.792 7.793z"/><path fill="#EC008C" d="M56.652 48.863c0 4.3-3.488 7.79-7.792 7.79-4.305 0-7.792-3.49-7.792-7.79 0-4.307 3.487-7.793 7.792-7.793 4.304 0 7.792 3.487 7.792 7.793zM35 70.238c0 4.3-3.488 7.79-7.793 7.79-4.304 0-7.793-3.49-7.793-7.79 0-4.307 3.49-7.793 7.793-7.793 4.305 0 7.793 3.487 7.793 7.793zM78.306 70.238c0 4.3-3.488 7.79-7.792 7.79s-7.793-3.49-7.793-7.79c0-4.307 3.49-7.793 7.794-7.793s7.792 3.487 7.792 7.793z"/><path fill="#ff0" d="M56.652 70.238c0 4.3-3.488 7.79-7.792 7.79-4.305 0-7.792-3.49-7.792-7.79 0-4.307 3.487-7.793 7.792-7.793 4.304 0 7.792 3.487 7.792 7.793z"/><linearGradient id="a" gradientUnits="userSpaceOnUse" x1="169.885" y1="258.436" x2="204.686" y2="258.12" gradientTransform="matrix(.681 .733 -.829 .769 116.279 -307.117)"><stop offset="0" stop-color="#fff" stop-opacity=".38"/><stop offset="1" stop-color="#fff" stop-opacity="0"/></linearGradient><path fill="url(#a)" d="M62.795 64.188c-14.65 13.61-36.705 13.67-49.27.144C.96 50.81 2.65 28.812 17.297 15.207c14.648-13.605 36.707-13.67 49.27-.145 12.563 13.528 10.875 35.52-3.773 49.126z"/><linearGradient id="b" gradientUnits="userSpaceOnUse" x1="51.49" y1="-123.143" x2="51.377" y2="-152.546" gradientTransform="matrix(.644 -.529 .73 .887 136.005 218.113)"><stop offset="0" stop-color="#fff" stop-opacity=".38"/><stop offset=".539" stop-color="#fff" stop-opacity="0"/></linearGradient><path fill="url(#b)" d="M88.588 49.848c7.036 8.562 3.27 23.29-8.413 32.895-11.685 9.61-26.86 10.453-33.9 1.893-7.038-8.56-3.27-23.287 8.413-32.895 11.683-9.607 26.86-10.453 33.9-1.892z"/><path fill="#003B7D" d="M166.22 71.395h-11.052l-5.272-27.105-9.888 23.308h-4.983L126.04 45.23l-5.356 26.165h-10.436l10.79-48.6h4.207l12.91 28.698 12.813-28.698h4.46l10.792 48.6zM205.106 40.137l-14.86 30.396c-1.96 4.032-3.548 6.83-4.76 8.39s-2.496 2.492-3.845 2.788h-10.966c1.73-.423 3.67-2.106 5.822-5.05s3.607-5.263 4.366-6.958l-14.736-29.564 8.75-4.148 10.768 24.155 11.22-24.155 8.242 4.147z"/><path fill="#7183B1" d="M260.7 71.395h-11.053l-5.272-27.105-9.888 23.308h-4.983l-8.986-22.368-5.355 26.165h-10.436l10.79-48.6h4.207l12.91 28.698 12.813-28.698h4.46l10.792 48.6zM300.123 66.174l-7.625 6.233c-1.16-.38-2.173-.98-3.038-1.804s-1.435-1.76-1.708-2.816l-5.948 3.385c-.232.127-.628.258-1.187.396-.56.137-1.028.206-1.408.206-4.58 0-8.36-1.57-11.344-4.715-2.985-3.144-4.477-7.51-4.477-13.1 0-5.315 1.55-9.698 4.65-13.146 3.1-3.45 7.056-5.173 11.865-5.173 1.92 0 3.712.38 5.38 1.14 1.665.76 2.762 1.435 3.29 2.025l5.505-1.993 1.93.57v21.705c0 1.898.332 3.407.997 4.524.664 1.12 1.702 1.973 3.116 2.564zm-13.384-4.746v-14.84c-.634-.79-1.462-1.466-2.485-2.032-1.023-.565-2.273-.848-3.75-.848-2.13 0-3.897.777-5.3 2.33s-2.104 4.125-2.104 7.717c0 2.853.654 5.14 1.962 6.86 1.308 1.723 3.143 2.584 5.506 2.584 1.35 0 2.615-.212 3.797-.634 1.182-.42 1.973-.8 2.374-1.138zM321.006 65.446l-7.024 6.613c-2.91-1.2-5.094-2.953-6.55-5.257s-2.183-5.057-2.183-8.256V43.71h-3.23v-6.33h3.23V26.15l9.68-.696v11.96h5.063v6.265h-5.062v12.115c0 2.418.55 4.427 1.646 6.025 1.097 1.6 2.573 2.81 4.43 3.63zM356.95 71.395h-9.682V50.037c0-1.244-.443-2.346-1.33-3.307-.885-.96-2.245-1.44-4.08-1.44-1.604 0-3.002.333-4.193.998-1.192.665-2.2 1.376-3.02 2.136v22.97h-9.683v-48.6h9.682v17.213l4.024-2.31c1.288-.738 2.54-1.25 3.754-1.535 1.215-.285 2.445-.427 3.692-.427 3.358 0 6.004 1.04 7.937 3.117 1.934 2.078 2.9 4.815 2.9 8.21v24.333zM390.267 59.72c0 3.712-1.33 6.696-3.986 8.953-2.657 2.257-5.948 3.386-9.87 3.386-1.836 0-4.035-.186-6.598-.555-2.563-.37-4.836-1.08-6.818-2.136v-8.544c1.56.886 3.333 1.65 5.315 2.294 1.98.644 4.28.965 6.897.965 1.877 0 3.39-.274 4.54-.823 1.15-.548 1.725-1.54 1.725-2.974 0-.928-.485-1.682-1.456-2.262-.97-.58-2.658-.976-5.062-1.187-4.303-.36-7.32-1.403-9.05-3.133-1.728-1.73-2.593-4.05-2.593-6.96 0-3.292 1.324-6.002 3.972-8.133 2.647-2.13 5.9-3.196 9.76-3.196 1.69 0 3.492.148 5.412.443 1.92.296 3.554.665 4.904 1.108v8.638c-1.688-.76-3.37-1.318-5.047-1.677-1.676-.36-3.485-.54-5.425-.54-1.56 0-2.78.27-3.654.808-.875.538-1.312 1.166-1.312 1.883 0 1.288.622 2.137 1.867 2.548 1.244.412 2.552.66 3.923.744 4.176.274 7.314 1.308 9.413 3.1 2.098 1.795 3.147 4.21 3.147 7.247z"/><path fill="#003B7D" d="M399.506 71.395h-5.015v-5.142h5.016v5.142zM417.256 70.002c-.348.348-.98.723-1.898 1.123-.918.4-2.073.6-3.465.6-2.626 0-4.75-.747-6.368-2.243-1.62-1.497-2.428-3.768-2.428-6.813 0-2.435.833-4.587 2.5-6.458 1.666-1.87 3.792-2.806 6.375-2.806 1.065 0 2.03.09 2.895.27.865.18 1.524.374 1.978.584v5.046c-.823-.57-1.574-.96-2.254-1.17s-1.44-.316-2.285-.316c-1.318 0-2.347.413-3.085 1.24s-1.107 2.072-1.107 3.735c0 1.58.438 2.76 1.313 3.538.875.78 1.91 1.17 3.1 1.17 1.056 0 1.947-.162 2.675-.484.73-.322 1.414-.742 2.058-1.258v4.24zM436.984 62.567c0 2.795-.8 5.02-2.402 6.676-1.602 1.656-3.8 2.483-6.59 2.483-3.004 0-5.254-.833-6.75-2.5-1.497-1.666-2.245-3.886-2.245-6.66 0-2.52.806-4.677 2.418-6.47 1.612-1.794 3.804-2.69 6.576-2.69 2.783 0 4.977.828 6.584 2.484 1.607 1.656 2.41 3.882 2.41 6.677zm-4.904 0c0-1.382-.36-2.61-1.083-3.686-.723-1.075-1.722-1.613-2.998-1.613-1.467 0-2.516.49-3.15 1.47s-.948 2.258-.948 3.83c0 1.466.38 2.716 1.14 3.75.76 1.034 1.776 1.55 3.053 1.55 1.424 0 2.444-.42 3.06-1.258s.925-2.187.925-4.043zM445.606 71.395h-5.015v-5.142h5.016v5.142zM466.015 71.395h-4.842v-1.93l-2.01 1.14c-.56.315-1.144.56-1.755.735-.612.174-1.27.26-1.978.26-1.677 0-2.998-.518-3.963-1.557-.965-1.04-1.448-2.413-1.448-4.12V54.387h4.84v10.44c0 .624.22 1.172.665 1.647.443.475 1.123.712 2.04.712.855 0 1.588-.182 2.2-.546.61-.363 1.08-.698 1.408-1.004V54.388h4.842v17.007zM486.2 71.395h-5.797l-4.777-7.477-.99.917v6.56h-4.84v-24.3h4.84v13.1l6.514-6.535 3.216 2.15-5.185 4.81 7.02 10.775z"/><g fill="#DB0065"><path d="M206.482 86.72h10.048c2.74 0 4.687.813 5.845 2.438.68.96 1.02 2.067 1.02 3.322 0 1.466-.418 2.668-1.25 3.607-.434.496-1.056.95-1.868 1.36 1.192.455 2.083.966 2.674 1.535 1.045 1.013 1.567 2.41 1.567 4.192 0 1.498-.472 2.854-1.417 4.066-1.412 1.814-3.656 2.72-6.733 2.72h-9.885V86.72zm8.872 9.825c1.343 0 2.387-.185 3.133-.554 1.172-.58 1.758-1.623 1.758-3.13 0-1.52-.623-2.543-1.87-3.07-.704-.295-1.748-.443-3.133-.443h-5.675v7.198h5.787zm1.064 10.726c1.948 0 3.337-.558 4.168-1.676.52-.707.783-1.56.783-2.563 0-1.687-.762-2.836-2.285-3.448-.81-.327-1.88-.49-3.21-.49h-6.308v8.178h6.85zM227.87 93.018h2.706v2.927c.222-.57.765-1.263 1.63-2.08s1.86-1.227 2.99-1.227c.052 0 .142.005.268.016.126.01.342.032.648.063v3.006c-.17-.032-.324-.053-.467-.063-.142-.01-.298-.016-.466-.016-1.436 0-2.538.46-3.308 1.384-.77.923-1.155 1.985-1.155 3.188v9.745h-2.848V93.02zM238.582 86.72h2.895v3.23h-2.895v-3.23zm0 6.377h2.895v16.864h-2.895V93.098zM245.78 93.018h2.705v2.404c.8-.99 1.65-1.703 2.547-2.136.896-.432 1.893-.648 2.99-.648 2.405 0 4.03.838 4.873 2.516.464.917.696 2.23.696 3.94v10.868h-2.894v-10.68c0-1.034-.153-1.867-.46-2.5-.505-1.055-1.423-1.582-2.75-1.582-.676 0-1.23.07-1.662.206-.78.232-1.466.696-2.057 1.392-.475.56-.783 1.137-.926 1.732-.14.596-.212 1.448-.212 2.555v8.875h-2.848V93.018zM273.22 93.698c.535.37 1.08.907 1.638 1.614v-2.136h2.626v15.41c0 2.15-.315 3.85-.946 5.093-1.177 2.298-3.4 3.448-6.67 3.448-1.817 0-3.347-.41-4.587-1.226-1.24-.817-1.933-2.096-2.08-3.836h2.894c.136.76.41 1.345.818 1.756.64.633 1.647.95 3.02.95 2.172 0 3.594-.77 4.265-2.31.398-.908.582-2.527.55-4.858-.566.865-1.25 1.51-2.048 1.93-.8.422-1.855.633-3.168.633-1.828 0-3.427-.65-4.798-1.954s-2.057-3.457-2.057-6.463c0-2.837.69-5.052 2.072-6.645 1.38-1.592 3.048-2.39 5.002-2.39 1.323.002 2.48.33 3.467.983zm.347 3.053c-.86-1.012-1.957-1.518-3.29-1.518-1.994 0-3.358.938-4.092 2.816-.388 1.002-.583 2.315-.583 3.94 0 1.908.386 3.36 1.157 4.358.77.997 1.806 1.495 3.107 1.495 2.036 0 3.468-.92 4.297-2.768.462-1.044.692-2.262.692-3.654 0-2.1-.43-3.654-1.29-4.667zM281.82 86.72h2.894v3.23h-2.895v-3.23zm0 6.377h2.894v16.864h-2.895V93.098zM289.017 93.018h2.705v2.404c.8-.99 1.65-1.703 2.547-2.136.895-.432 1.892-.648 2.99-.648 2.404 0 4.028.838 4.872 2.516.464.917.696 2.23.696 3.94v10.868h-2.895v-10.68c0-1.034-.153-1.867-.46-2.5-.505-1.055-1.423-1.582-2.75-1.582-.676 0-1.23.07-1.662.206-.78.232-1.465.696-2.056 1.392-.475.56-.783 1.137-.926 1.732-.142.596-.213 1.448-.213 2.555v8.875h-2.848V93.018zM316.456 93.698c.536.37 1.082.907 1.64 1.614v-2.136h2.625v15.41c0 2.15-.314 3.85-.945 5.093-1.177 2.298-3.4 3.448-6.67 3.448-1.817 0-3.347-.41-4.587-1.226-1.24-.817-1.934-2.096-2.082-3.836h2.895c.137.76.41 1.345.82 1.756.64.633 1.646.95 3.02.95 2.17 0 3.593-.77 4.264-2.31.398-.908.582-2.527.55-4.858-.566.865-1.25 1.51-2.048 1.93-.798.422-1.854.633-3.167.633-1.83 0-3.428-.65-4.8-1.954s-2.056-3.457-2.056-6.463c0-2.837.69-5.052 2.072-6.645 1.382-1.592 3.05-2.39 5.003-2.39 1.322.002 2.478.33 3.466.983zm.348 3.053c-.86-1.012-1.957-1.518-3.29-1.518-1.994 0-3.358.938-4.092 2.816-.388 1.002-.583 2.315-.583 3.94 0 1.908.385 3.36 1.156 4.358.77.997 1.807 1.495 3.108 1.495 2.036 0 3.468-.92 4.297-2.768.463-1.044.693-2.262.693-3.654.002-2.1-.428-3.654-1.29-4.667zM334.058 93.018h2.816v2.404c.675-.833 1.287-1.44 1.835-1.82.938-.642 2.003-.964 3.195-.964 1.35 0 2.437.332 3.26.997.463.38.885.94 1.265 1.677.633-.907 1.376-1.58 2.23-2.017s1.814-.657 2.88-.657c2.277 0 3.828.823 4.65 2.468.443.886.665 2.078.665 3.576v11.28h-2.958V98.19c0-1.128-.282-1.903-.846-2.325-.563-.422-1.25-.633-2.063-.633-1.118 0-2.08.375-2.887 1.123-.807.75-1.21 2-1.21 3.75v9.856h-2.895V98.903c0-1.15-.137-1.988-.41-2.515-.434-.79-1.24-1.187-2.422-1.187-1.076 0-2.054.417-2.935 1.25-.88.833-1.32 2.342-1.32 4.525v8.986h-2.85V93.02zM370.128 99.707c.654-.084 1.092-.358 1.313-.82.127-.255.19-.62.19-1.097 0-.974-.345-1.68-1.034-2.12s-1.676-.66-2.96-.66c-1.484 0-2.537.404-3.158 1.21-.348.444-.574 1.107-.68 1.986h-2.657c.054-2.094.73-3.55 2.032-4.37 1.3-.82 2.81-1.23 4.527-1.23 1.99 0 3.607.38 4.85 1.14 1.232.758 1.85 1.94 1.85 3.543v9.76c0 .296.06.534.18.712.122.18.378.27.768.27.127 0 .27-.01.427-.024.158-.016.327-.04.506-.07v2.103c-.442.127-.78.207-1.012.238s-.548.047-.95.047c-.98 0-1.69-.348-2.135-1.044-.232-.368-.396-.89-.49-1.565-.58.76-1.414 1.418-2.5 1.978s-2.284.838-3.59.838c-1.573 0-2.856-.476-3.853-1.43-.997-.952-1.495-2.145-1.495-3.578 0-1.57.49-2.786 1.47-3.65.982-.863 2.27-1.396 3.86-1.596l4.543-.57zm-5.996 7.693c.6.474 1.313.71 2.136.71 1.002 0 1.972-.23 2.91-.695 1.583-.77 2.374-2.027 2.374-3.775v-2.29c-.347.22-.794.407-1.342.555-.547.148-1.084.254-1.61.317l-1.72.22c-1.032.138-1.808.354-2.328.648-.88.495-1.32 1.284-1.32 2.368-.002.82.3 1.468.9 1.942zM379.636 88.287h2.88v4.73h2.704v2.325h-2.705v11.06c0 .59.2.985.6 1.186.223.116.592.174 1.108.174.137 0 .285-.003.443-.01s.343-.024.554-.053v2.26c-.327.096-.667.165-1.02.207-.354.042-.736.063-1.147.063-1.33 0-2.23-.34-2.706-1.02s-.712-1.564-.712-2.65V95.342h-2.294v-2.325h2.295v-4.73zM388.07 86.642h2.847v8.67c.675-.854 1.28-1.456 1.82-1.804.916-.6 2.06-.902 3.432-.902 2.456 0 4.123.86 4.998 2.58.475.938.712 2.24.712 3.907v10.87h-2.927v-10.68c0-1.245-.158-2.158-.475-2.738-.517-.928-1.487-1.392-2.91-1.392-1.182 0-2.253.406-3.212 1.218-.96.813-1.44 2.348-1.44 4.605v8.986h-2.847V86.643zM407.78 104.646c.087.95.33 1.677.727 2.183.732.916 2.002 1.375 3.81 1.375 1.077 0 2.024-.23 2.843-.688.818-.458 1.227-1.168 1.227-2.128 0-.73-.327-1.282-.98-1.662-.42-.23-1.244-.5-2.477-.807l-2.3-.568c-1.467-.358-2.55-.76-3.247-1.203-1.243-.77-1.865-1.836-1.865-3.197 0-1.603.585-2.9 1.756-3.892 1.17-.99 2.744-1.486 4.722-1.486 2.586 0 4.452.75 5.595 2.247.717.95 1.064 1.974 1.043 3.07h-2.69c-.053-.64-.285-1.222-.695-1.747-.67-.745-1.83-1.117-3.482-1.117-1.1 0-1.936.205-2.502.615-.567.41-.85.952-.85 1.625 0 .736.372 1.324 1.117 1.766.43.264 1.064.495 1.903.695l1.918.46c2.086.495 3.482.975 4.192 1.438 1.107.728 1.66 1.873 1.66 3.433 0 1.508-.578 2.81-1.737 3.908s-2.923 1.645-5.293 1.645c-2.552 0-4.36-.573-5.422-1.717s-1.63-2.56-1.706-4.248h2.737zM441.992 99.707c.654-.084 1.092-.358 1.313-.82.126-.255.19-.62.19-1.097 0-.974-.346-1.68-1.035-2.12s-1.676-.66-2.96-.66c-1.484 0-2.537.404-3.158 1.21-.348.444-.574 1.107-.68 1.986h-2.657c.053-2.094.73-3.55 2.03-4.37 1.302-.82 2.81-1.23 4.528-1.23 1.99 0 3.608.38 4.85 1.14 1.233.758 1.85 1.94 1.85 3.543v9.76c0 .296.06.534.182.712.12.18.377.27.767.27.127 0 .27-.01.427-.024.157-.016.326-.04.505-.07v2.103c-.443.127-.78.207-1.013.238s-.548.047-.95.047c-.98 0-1.69-.348-2.135-1.044-.232-.368-.396-.89-.49-1.565-.58.76-1.414 1.418-2.5 1.978s-2.284.838-3.59.838c-1.573 0-2.856-.476-3.853-1.43-.997-.952-1.495-2.145-1.495-3.578 0-1.57.49-2.786 1.47-3.65.98-.863 2.268-1.396 3.86-1.596l4.542-.57zm-5.996 7.693c.6.474 1.313.71 2.136.71 1.002 0 1.972-.23 2.91-.695 1.583-.77 2.374-2.027 2.374-3.775v-2.29c-.347.22-.794.407-1.342.555-.547.148-1.084.254-1.61.317l-1.72.22c-1.032.138-1.808.354-2.328.648-.88.495-1.32 1.284-1.32 2.368-.002.82.3 1.468.9 1.942zM451.01 86.72h2.847v23.24h-2.848V86.72zM458.128 86.72h2.895v3.23h-2.895v-3.23zm0 6.377h2.895v16.864h-2.895V93.098zM466.727 93.018l4.524 13.795 4.716-13.795h3.117l-6.38 16.943h-3.034l-6.25-16.942h3.307zM491.992 93.484c1.122.564 1.976 1.295 2.563 2.19.566.855.943 1.852 1.132 2.99.167.782.25 2.026.25 3.735h-12.322c.052 1.723.455 3.106 1.208 4.147.754 1.042 1.92 1.562 3.5 1.562 1.477 0 2.654-.494 3.533-1.48.49-.57.84-1.233 1.045-1.985h2.802c-.074.622-.32 1.315-.736 2.08-.416.765-.88 1.39-1.395 1.875-.856.844-1.92 1.413-3.186 1.708-.68.168-1.45.253-2.308.253-2.097 0-3.873-.766-5.33-2.3s-2.186-3.685-2.186-6.448c0-2.72.734-4.93 2.2-6.63 1.47-1.697 3.387-2.546 5.756-2.546 1.196.002 2.354.284 3.476.848zm1.02 6.653c-.114-1.234-.382-2.22-.8-2.958-.773-1.372-2.065-2.058-3.875-2.058-1.297 0-2.384.472-3.262 1.416-.88.944-1.345 2.144-1.396 3.6h9.333z"/></g></svg>